<svg width="64" height="64" viewBox="0 0 64 64" fill="none" xmlns="http://www.w3.org/2000/svg">
<path d="M1.31995 32.12C1.31995 29.8267 1.74661 27.8133 2.59995 26.08C3.47995 24.3467 4.66661 23.0133 6.15995 22.08C7.65328 21.1467 9.31995 20.68 11.1599 20.68C12.7333 20.68 14.1066 21 15.2799 21.64C16.4799 22.28 17.3999 23.12 18.0399 24.16V21L24.8799 21L24.8799 43.32H18.0399L18.0399 40.16C17.3733 41.2 16.4399 42.04 15.2399 42.68C14.0666 43.32 12.6933 43.64 11.1199 43.64C9.30661 43.64 7.65328 43.1733 6.15995 42.24C4.66661 41.28 3.47995 39.9333 2.59995 38.2C1.74661 36.44 1.31995 34.4133 1.31995 32.12ZM18.0399 32.16C18.0399 30.4533 17.5599 29.1067 16.5999 28.12C15.6666 27.1333 14.5199 26.64 13.1599 26.64C11.7999 26.64 10.6399 27.1333 9.67995 28.12C8.74661 29.08 8.27995 30.4133 8.27995 32.12C8.27995 33.8267 8.74661 35.1867 9.67995 36.2C10.6399 37.1867 11.7999 37.68 13.1599 37.68C14.5199 37.68 15.6666 37.1867 16.5999 36.2C17.5599 35.2133 18.0399 33.8667 18.0399 32.16Z" fill="#8BB19C"/>
<path d="M35.96 21C37.5333 21 38.9067 21.32 40.08 21.96C41.28 22.6 42.2 23.44 42.84 24.48V21.32L49.68 21.32V43.6C49.68 45.6533 49.2667 47.5067 48.44 49.16C47.64 50.84 46.4 52.1733 44.72 53.16C43.0667 54.1467 41 54.64 38.52 54.64C35.2133 54.64 32.5333 53.8533 30.48 52.28C28.4267 50.7333 27.2533 48.6267 26.96 45.96H33.72C33.9333 46.8133 34.44 47.48 35.24 47.96C36.04 48.4667 37.0267 48.72 38.2 48.72C39.6133 48.72 40.7333 48.3067 41.56 47.48C42.4133 46.68 42.84 45.3867 42.84 43.6V40.44C42.1733 41.48 41.2533 42.3333 40.08 43C38.9067 43.64 37.5333 43.96 35.96 43.96C34.12 43.96 32.4533 43.4933 30.96 42.56C29.4667 41.6 28.28 40.2533 27.4 38.52C26.5467 36.76 26.12 34.7333 26.12 32.44C26.12 30.1467 26.5467 28.1333 27.4 26.4C28.28 24.6667 29.4667 23.3333 30.96 22.4C32.4533 21.4667 34.12 21 35.96 21ZM42.84 32.48C42.84 30.7733 42.36 29.4267 41.4 28.44C40.4667 27.4533 39.32 26.96 37.96 26.96C36.6 26.96 35.44 27.4533 34.48 28.44C33.5467 29.4 33.08 30.7333 33.08 32.44C33.08 34.1467 33.5467 35.5067 34.48 36.52C35.44 37.5067 36.6 38 37.96 38C39.32 38 40.4667 37.5067 41.4 36.52C42.36 35.5333 42.84 34.1867 42.84 32.48Z" fill="#8BB19C"/>
<path d="M58.68 44.44C57.48 44.44 56.4933 44.0933 55.72 43.4C54.9733 42.68 54.6 41.8 54.6 40.76C54.6 39.6933 54.9733 38.8 55.72 38.08C56.4933 37.36 57.48 37 58.68 37C59.8533 37 60.8133 37.36 61.56 38.08C62.3333 38.8 62.72 39.6933 62.72 40.76C62.72 41.8 62.3333 42.68 61.56 43.4C60.8133 44.0933 59.8533 44.44 58.68 44.44Z" fill="#8BB19C"/>
</svg>
